#!OML:ASF F:\VICON\USERDATA\INSTALL\rory3\rory3.ASF
:FULLY-SPECIFIED
:DEGREES
17
root 0.5708495176920024 18.148882109018945 -18.31728844163335 -3.5263529385834014 -0.4358938726157242 -4.630973454824252
lfemur -9.413360021386918 0.506654732728796 -14.889607656262957
ltibia 65.48798062111527
lfoot 10.12168134967898 -14.173381682292831
ltoes -6.862005026503801
rfemur -14.97749926897217 6.482003518938448 29.49909435676682
rtibia 29.18830524001816
rfoot -8.577560343690637 -4.967023112844336
rtoes 9.102620783601445
lowerback 11.856484210309743 -1.15703028191696 2.6081553572052147
upperback -0.42363369082739444 -0.9520653712895386 3.0802436567054334
thorax -7.107057513222475 -0.5001245622990496 1.9560865731992032
lowerneck -15.586103674989948 -2.7404930894429245 -2.304532521648351
upperneck 23.38279639525989 -3.081096074654274 -0.679166117238594
head 10.045497759789964 -1.713463234986306 -0.25785772172329513
lclavicle -1.3874280347414164e-15 -1.8436986327867626e-15
lhumerus -29.68650114087263 3.653289313544721 81.8654967184585
lradius 26.505596297841283
lwrist 2.8132909722598445
lhand -27.98039812364167 22.1137044870716
lfingers 7.125019999999999
lthumb -1.3669881238937758 52.08910443195744
rclavicle -1.3874280347414164e-15 -1.8436986327867626e-15
rhumerus -35.24669221307881 -27.314795110921807 -71.08960696664508
rradius 19.175610719270676
rwrist 11.774090927089114
rhand -17.26950730064349 22.434599579718213
rfingers 7.125019999999999
rthumb 8.975282698542257 -7.354470604201003
18
root 0.5306084967357326 18.179180245834875 -17.657089097514273 -3.6433920521827927 -1.3544205388954755 -4.77073303308919
lfemur -14.193197020998614 2.0080419082805046 -14.639208273351056
ltibia 67.41138021209221
lfoot 1.9346292793196254 -8.550580164257362
ltoes -1.2122635135447686
rfemur -12.036201271402087 6.982732034125982 30.240593275793277
rtibia 28.91930569204879
rfoot -10.534597936826195 -3.790215990253195
rtoes 5.040667380031087
lowerback 11.661186212623226 -0.6206588719096884 2.7170651104837287
upperback -0.20897396538770815 -0.2569944176825302 2.8586061091735
thorax -6.777141857301784 -0.16745075439050006 1.5280483479220068
lowerneck -15.5155045918678 -2.891579285871552 -2.3898711396252654
upperneck 23.510895599357262 -3.3666322458371196 -0.3118562120288534
head 10.08889700092168 -1.8093995077012863 -0.15270787092407992
lclavicle -1.3874280642612796e-15 -1.8436985033358366e-15
lhumerus -30.86279905136656 4.708497301346603 81.99199602147672
lradius 26.04939712089651
lwrist 2.5402516900644767
lhand -27.897798446100563 23.175301523299137
lfingers 7.125019999999999
lthumb -1.287198463551743 53.15120148107725
rclavicle -1.3874280642612796e-15 -1.8436985033358366e-15
rhumerus -32.745395701813045 -25.32859739695348 -73.37790319459859
rradius 19.909309119784343
rwrist 9.999423953070053
rhand -16.078217066947953 21.773603363433274
rfingers 7.125019999999999
rthumb 10.12468296317085 -7.962777147085165
19
root 0.5035911534337679 18.153481835668757 -17.012889588600288 -3.3081246604780885 -2.2133064540217857 -4.931382637558261
lfemur -18.873293846944712 2.962078239498667 -14.61040820788529
ltibia 67.02797991161971
lfoot -2.705465413100498 -5.349195139916466
ltoes -3.8797193991136827
rfemur -10.374702719510406 7.269591080513991 30.909092101410625
rtibia 29.22830488504829
rfoot -12.253195809281484 -5.787921046642299
rtoes 5.384596841672284
lowerback 11.536487479897392 0.05442060067569404 3.18690390416847
upperback -0.3032061204096588 0.667937517649585 2.3494518055875915
thorax -6.799681596778648 0.2585261281210907 0.5654154192458296
lowerneck -15.818200674020183 -3.1899717791102233 -1.8659995745841298
upperneck 23.876493152530614 -3.936134625683124 -0.2565658185513239
head 10.272593763142206 -2.015931496589405 -0.3058882877516754
lclavicle -1.3874280504791363e-15 -1.8436986314023275e-15
lhumerus -32.02399704460567 4.616187467994991 81.9255964083785
lradius 25.591697964952242
lwrist 2.4673618771269825
lhand -27.837498701438292 19.339612055229985
lfingers 7.125019999999999
lthumb -1.2289786919189947 49.31581205570593
rclavicle -1.3874280504791363e-15 -1.8436986314023275e-15
rhumerus -30.750298582575972 -22.886400413357727 -75.90969928114055
rradius 21.450606087504422
rwrist 7.415797932889084
rhand -17.17050808309682 24.480187864624014
rfingers 7.125019999999999
rthumb 9.07081186001575 -5.304792254179772
20
root 0.4873605478297849 18.114784226410052 -16.38068794167407 -3.0809664508653225 -2.4762052150785445 -5.475451120468536
lfemur -22.944791016160384 2.625109673579596 -14.199208805890947
ltibia 64.09458217976356
lfoot -5.627152337763446 -2.9776787829437086
ltoes -6.571255212636158
rfemur -8.301783997189311 7.285921017216051 31.90229081279007
rtibia 29.60440472054637
rfoot -14.418293012334301 -6.5939490235236216
rtoes 4.962637552264664
lowerback 11.67608602383707 0.3162147292575604 3.838182067134744
upperback -0.42164373573238667 1.1108675685911091 2.245732938605011
thorax -6.986039142361991 0.4464863208716119 0.013075968179630637
lowerneck -15.541004257054732 -3.21430115119492 -1.8353800677793302
upperneck 23.62449482166744 -3.9813140252862875 -0.24968990759180032
head 10.128296313678716 -2.034160786153649 -0.3062702802995374
lclavicle -1.3874280789979016e-15 -1.8436986033661214e-15
lhumerus -33.63669404883853 5.220016322828723 81.95119625040248
lradius 25.70419777006425
lwrist 3.375569541390116
lhand -26.149205469842094 22.354703771990327
lfingers 7.125019999999999
lthumb 0.4016016115146479 52.33410372845529
rclavicle -1.3874280789979016e-15 -1.8436986033661214e-15
rhumerus -28.93780120346234 -19.17020507451523 -78.07239590247667
rradius 23.760401574560422
rwrist 4.1291830387782475
rhand -15.378822805528067 16.549933280908487
rfingers 7.125019999999999
rthumb 10.799377225219816 -13.152367431386379
21
root 0.36950245640291735 17.749628654906285 -8.870161082337395 -2.987240798189617 -1.6656885038033795 -6.382347383397651
lfemur -25.248665204173683 2.907586175541951 -12.96003352738385
ltibia 59.18522641252557
lfoot -15.61417060232932 1.082982875351039
ltoes -4.4375634448105234
rfemur -7.231696775024227 6.370600456822417 33.32269517570972
rtibia 30.807408154150902
rfoot -16.60536953632651 -7.234808904761118
rtoes 6.5203460655166126
lowerback 12.617021611722114 0.5253540562786296 4.9226074874063706
upperback -0.4600988794192564 1.4722562741155856 2.2196542857375876
thorax -6.612205318402299 0.5997424805662946 -0.8638973970456656
lowerneck -15.562340512672906 -3.170651048896158 -2.0107232312380807
upperneck 23.180985343525723 -3.992939634330184 0.04401400111095073
head 10.030175228644316 -1.9645761360063547 -0.22588818056703974
lclavicle -1.3823557274468657e-15 -1.8389486518939358e-15
lhumerus -34.09145375016277 5.848052417326451 81.87834482359897
lradius 25.463581613127324
lwrist 5.095137432826785
lhand -26.693965831674475 23.07928753426666
lfingers 7.125019999999999
lthumb -0.30497620687610083 52.60594718576976
rclavicle -1.3815721715368806e-15 -1.838881307135379e-15
rhumerus -26.501732343126818 -16.871737788610716 -79.45744087665292
rradius 24.920215005567226
rwrist 2.4977524802297677
rhand -17.510724069750772 21.31266693119178
rfingers 7.125019999999999
rthumb 8.797213336133487 -8.83340814420603
22
root 0.36045375328694995 17.5992942224101 -7.0554446374609885 -2.9255565671240724 -1.580571906654929 -7.612627600355891
lfemur -27.3807969448346 2.764898508757784 -11.546419149856323
ltibia 51.60496201934105
lfoot -14.484678697608928 1.1209892257578726
ltoes -2.6632984219839466
rfemur -5.21046568831761 6.08165305761649 34.85571738777465
rtibia 30.531268856640498
rfoot -17.985464758255738 -7.744038377062529
rtoes 7.353846121257196
lowerback 13.052528066325674 0.7249103851245465 5.914881971122417
upperback -0.32351956683942307 1.7575810813827983 2.244284752692012
thorax -6.391534744195134 0.7744978863598735 -1.246052051948486
lowerneck -15.544092418783052 -3.080388445415903 -1.8804832165193512
upperneck 23.11852457733162 -3.833147334724388 -0.17555881312405272
head 10.001520028588782 -1.8992786422721266 -0.3101371504972353
lclavicle -1.3824411300172526e-15 -1.83900875820598e-15
lhumerus -34.69101631497716 7.217066342164107 81.64898043669737
lradius 24.31511249632586
lwrist 6.411842066350051
lhand -27.11872986626344 22.871387849346334
lfingers 7.125019999999999
lthumb -0.8694772309486878 52.34469725766679
rclavicle -1.3809753146987544e-15 -1.8382910202687787e-15
rhumerus -24.38685565501097 -14.814307603349114 -80.31975196722973
rradius 26.36102502451634
rwrist 1.135446440924265
rhand -17.737695674210627 22.638952305358483
rfingers 7.125019999999999
rthumb 8.646571551295684 -7.434359393396825
23
root 0.40624198654569704 17.64234993576824 -6.713565754235795 -2.174514098200084 -1.8195928045952763 -7.821034467001075
lfemur -28.580049316354057 1.3782862181643973 -11.023721670385953
ltibia 41.1816088954063
lfoot -14.97185620458836 1.5824812649688376
ltoes -2.0004646104579193
rfemur -2.945647770561374 5.92793146224642 35.19455700900113
rtibia 29.21977342384949
rfoot -18.73112707876306 -8.016725674615307
rtoes 6.4060748822973075
lowerback 12.596234017007838 0.9863949329138437 6.284447554261909
upperback -0.2373763618328835 2.0699000650174284 2.248876638056667
thorax -6.143492727547303 0.9185795056163828 -1.4730030289539855
lowerneck -15.800191454577186 -3.0758298570196563 -1.7415517899180222
upperneck 22.978415303014366 -3.8068452955095666 -0.3231401670406608
head 9.92203935570275 -1.9082024331184049 -0.39660872566499883
lclavicle -1.3807576337643632e-15 -1.837445911820509e-15
lhumerus -35.32604582917194 9.246641640346837 81.14783065457799
lradius 22.30793392994366
lwrist 6.965621138067597
lhand -26.739495933956373 23.40735935059955
lfingers 7.125019999999999
lthumb -0.8657036096938338 52.68220576431568
rclavicle -1.378639183024657e-15 -1.8360707889149594e-15
rhumerus -22.7686532237625 -13.118532184666844 -80.64151417644464
rradius 27.8533749095267
rwrist -0.2667921939173086
rhand -17.668947386880433 22.221699650221783
rfingers 7.125019999999999
rthumb 8.624673827061324 -7.770171025373273
